HIERARCHY
ROOT joint_0
{
	OFFSET 0.000000 0.000000 0.000000
	CHANNELS 6 Xposition Yposition Zposition Zrotation Yrotation Xrotation 
	JOINT joint_1
	{
		OFFSET 6.579712 -2.778931 100.531982
		CHANNELS 3 Zrotation Yrotation Xrotation
		JOINT joint_2
		{
			OFFSET -3.313232 -1.302856 91.974976
			CHANNELS 3 Zrotation Yrotation Xrotation
			JOINT joint_3
			{
				OFFSET -3.421509 -1.641846 91.864014
				CHANNELS 3 Zrotation Yrotation Xrotation
				JOINT joint_4
				{
					OFFSET 7.697388 -4.642578 123.278931
					CHANNELS 3 Zrotation Yrotation Xrotation
					JOINT joint_5
					{
						OFFSET 24.842529 -5.941528 79.695068
						CHANNELS 3 Zrotation Yrotation Xrotation
						End Site
						{
							OFFSET 0.000000 0.000000 0.000000
						}
					}
				}
				JOINT joint_6
				{
					OFFSET -0.159668 -29.112976 68.364014
					CHANNELS 3 Zrotation Yrotation Xrotation
					JOINT joint_7
					{
						OFFSET -18.356079 -115.987061 -20.069092
						CHANNELS 3 Zrotation Yrotation Xrotation
						JOINT joint_8
						{
							OFFSET 31.719482 -11.733276 -267.170898
							CHANNELS 3 Zrotation Yrotation Xrotation
							JOINT joint_9
							{
								OFFSET 29.329956 -5.879517 -234.654053
								CHANNELS 3 Zrotation Yrotation Xrotation
								End Site
								{
									OFFSET 0.000000 0.000000 0.000000
								}
							}
						}
					}
				}
				JOINT joint_10
				{
					OFFSET 8.802979 23.897949 69.798950
					CHANNELS 3 Zrotation Yrotation Xrotation
					JOINT joint_11
					{
						OFFSET 21.159058 115.524292 -19.981934
						CHANNELS 3 Zrotation Yrotation Xrotation
						JOINT joint_12
						{
							OFFSET 18.809204 5.403442 -268.593018
							CHANNELS 3 Zrotation Yrotation Xrotation
							JOINT joint_13
							{
								OFFSET 20.807861 0.421265 -235.639038
								CHANNELS 3 Zrotation Yrotation Xrotation
								End Site
								{
									OFFSET 0.000000 0.000000 0.000000
								}
							}
						}
					}
				}
			}
		}
	}
	JOINT joint_14
	{
		OFFSET -9.713379 -79.513916 -99.348022
		CHANNELS 3 Zrotation Yrotation Xrotation
		JOINT joint_15
		{
			OFFSET -40.607788 -6.518372 -502.938019
			CHANNELS 3 Zrotation Yrotation Xrotation
			JOINT joint_16
			{
				OFFSET -19.807617 -7.437378 -399.590012
				CHANNELS 3 Zrotation Yrotation Xrotation
				JOINT joint_17
				{
					OFFSET 171.701660 -44.751282 -77.782000
					CHANNELS 3 Zrotation Yrotation Xrotation
					End Site
					{
						OFFSET 0.000000 0.000000 0.000000
					}
				}
			}
		}
	}
	JOINT joint_18
	{
		OFFSET 17.854858 79.618652 -98.128052
		CHANNELS 3 Zrotation Yrotation Xrotation
		JOINT joint_19
		{
			OFFSET -24.848877 16.861816 -503.722992
			CHANNELS 3 Zrotation Yrotation Xrotation
			JOINT joint_20
			{
				OFFSET -30.162476 14.470093 -398.750008
				CHANNELS 3 Zrotation Yrotation Xrotation
				JOINT joint_21
				{
					OFFSET 176.096680 -10.987549 -80.021000
					CHANNELS 3 Zrotation Yrotation Xrotation
					End Site
					{
						OFFSET 0.000000 0.000000 0.000000
					}
				}
			}
		}
	}
}
MOTION
Frames: 7
Frame Time: 0.016667
-2551.533691 965.251465 1097.532959 -0.895060 1.429033 1.549129 -1.266474 -2.299430 -1.113355 -1.187692 0.393089 0.112994 -1.213508 -0.465543 -0.163605 -0.655019 0.548945 2.250862 0.000000 0.000000 0.000000 2.280772 1.620643 -1.577127 -0.026284 1.673400 0.608280 -0.145939 -1.438243 -1.495469 0.000000 0.000000 0.000000 -0.816962 0.733698 0.383604 0.013725 1.109488 -0.882093 0.003596 -2.538711 0.034156 0.000000 0.000000 0.000000 0.302323 1.133179 -1.832401 -0.042506 -0.612499 2.677317 0.174270 -3.183974 -0.751315 0.000000 0.000000 0.000000 2.297129 1.196808 -0.503596 2.252108 -1.842217 -1.661629 2.135541 0.332222 0.989838 0.000000 0.000000 0.000000 
-2551.890381 965.604065 1097.496948 -0.902137 1.370314 1.526141 -1.262252 -2.311124 -1.098749 -1.183781 0.393728 0.111431 -1.209507 -0.465829 -0.162658 -0.658069 0.566323 2.264901 0.000000 0.000000 0.000000 2.250803 1.652510 -1.552568 -0.032258 1.710816 0.571174 -0.144885 -1.448047 -1.489447 0.000000 0.000000 0.000000 -0.821551 0.759483 0.350291 0.014904 1.127597 -0.868039 0.004823 -2.523462 0.048881 0.000000 0.000000 0.000000 0.303812 1.163063 -1.849028 -0.045580 -0.589395 2.718146 0.172948 -3.162183 -0.746232 0.000000 0.000000 0.000000 2.293816 1.211070 -0.485895 2.252310 -1.772946 -1.677408 2.130341 0.281235 0.984352 0.000000 0.000000 0.000000 
-2552.230469 965.945740 1097.459961 -0.909536 1.312448 1.503420 -1.257702 -2.323731 -1.084149 -1.179604 0.394023 0.108210 -1.205126 -0.466082 -0.160487 -0.660886 0.583647 2.278159 0.000000 0.000000 0.000000 2.220860 1.684083 -1.528596 -0.038237 1.747855 0.534036 -0.143691 -1.458244 -1.482357 0.000000 0.000000 0.000000 -0.826445 0.784002 0.316054 0.016165 1.144054 -0.852439 0.006247 -2.506931 0.065874 0.000000 0.000000 0.000000 0.305167 1.193838 -1.863555 -0.048295 -0.568083 2.755390 0.171785 -3.140900 -0.741210 0.000000 0.000000 0.000000 2.290586 1.226345 -0.468197 2.252452 -1.705921 -1.692565 2.125268 0.231609 0.979006 0.000000 0.000000 0.000000 
-2552.556152 966.283386 1097.421997 -0.917880 1.255084 1.482007 -1.255017 -2.335933 -1.069164 -1.177281 0.394270 0.106011 -1.202641 -0.464875 -0.159081 -0.662411 0.599553 2.286884 0.000000 0.000000 0.000000 2.198379 1.713143 -1.503793 -0.044501 1.784222 0.494558 -0.142520 -1.469812 -1.475760 0.000000 0.000000 0.000000 -0.824234 0.807124 0.281951 0.017351 1.157999 -0.837387 0.007543 -2.492168 0.081331 0.000000 0.000000 0.000000 0.306865 1.225893 -1.878648 -0.050548 -0.548838 2.791029 0.170959 -3.119647 -0.736042 0.000000 0.000000 0.000000 2.287732 1.242799 -0.452385 2.252714 -1.640688 -1.706441 2.120522 0.183272 0.973884 0.000000 0.000000 0.000000 
-2552.867676 966.620972 1097.380005 -0.928829 1.196670 1.462102 -1.252369 -2.343437 -1.051485 -1.175227 0.392587 0.102375 -1.200268 -0.462996 -0.156248 -0.662732 0.614325 2.291402 0.000000 0.000000 0.000000 2.177756 1.740130 -1.479881 -0.051048 1.819150 0.452544 -0.141377 -1.483485 -1.469906 0.000000 0.000000 0.000000 -0.818735 0.828620 0.246528 0.018422 1.169816 -0.824143 0.008750 -2.480325 0.095623 0.000000 0.000000 0.000000 0.309223 1.260578 -1.895536 -0.052220 -0.531153 2.826406 0.170685 -3.099306 -0.730862 0.000000 0.000000 0.000000 2.286051 1.262217 -0.439063 2.253809 -1.576811 -1.718912 2.116749 0.135149 0.969215 0.000000 0.000000 0.000000 
-2553.165283 966.955566 1097.338013 -0.941011 1.139502 1.443343 -1.250847 -2.352361 -1.032386 -1.174332 0.392918 0.098094 -1.199060 -0.461277 -0.153114 -0.661894 0.629119 2.292175 0.000000 0.000000 0.000000 2.162124 1.765037 -1.455318 -0.057877 1.853378 0.408193 -0.140287 -1.498429 -1.464783 0.000000 0.000000 0.000000 -0.808452 0.848997 0.210143 0.019470 1.179515 -0.810951 0.009875 -2.470256 0.108922 0.000000 0.000000 0.000000 0.312047 1.295418 -1.912935 -0.053330 -0.515063 2.860260 0.170860 -3.079131 -0.725523 0.000000 0.000000 0.000000 2.284838 1.281999 -0.427485 2.255151 -1.514840 -1.730254 2.113429 0.088648 0.964850 0.000000 0.000000 0.000000 
-2553.448975 967.281982 1097.296997 -0.952896 1.083877 1.425467 -1.249464 -2.361444 -1.014150 -1.173580 0.391175 0.093748 -1.197936 -0.458668 -0.149924 -0.661072 0.644597 2.293144 0.000000 0.000000 0.000000 2.144944 1.789194 -1.430747 -0.064612 1.886554 0.363992 -0.139342 -1.510751 -1.460267 0.000000 0.000000 0.000000 -0.799620 0.868625 0.176531 0.020427 1.189499 -0.799333 0.010700 -2.463389 0.118672 0.000000 0.000000 0.000000 0.314717 1.330538 -1.930270 -0.054460 -0.501333 2.892967 0.170910 -3.058670 -0.720165 0.000000 0.000000 0.000000 2.283700 1.301852 -0.416490 2.256461 -1.455162 -1.741581 2.110247 0.044520 0.960693 0.000000 0.000000 0.000000 
